<?xml version="1.0" standalone="no"?>
<!DOCTYPE svg PUBLIC "-//W3C//DTD SVG 20010904//EN"
 "http://www.w3.org/TR/2001/REC-SVG-20010904/DTD/svg10.dtd">
<svg version="1.0" xmlns="http://www.w3.org/2000/svg"
 width="1711.000000pt" height="1711.000000pt" viewBox="0 0 1711.000000 1711.000000"
 preserveAspectRatio="xMidYMid meet">
<metadata>
Created by potrace 1.11, written by Peter Selinger 2001-2013
</metadata>
<g transform="translate(0.000000,1711.000000) scale(0.100000,-0.100000)"
fill="#000000" stroke="none">
<path d="M8547 15944 c-1 -1 -52 -4 -112 -8 -61 -3 -119 -8 -130 -10 -11 -2
-47 -7 -80 -10 -83 -10 -122 -15 -180 -26 -27 -5 -66 -12 -85 -14 -19 -3 -46
-8 -60 -12 -14 -3 -34 -7 -45 -9 -187 -30 -694 -189 -918 -289 -18 -8 -57 -25
-87 -37 -99 -43 -343 -170 -455 -236 -343 -205 -605 -411 -895 -703 -189 -191
-206 -209 -275 -295 -22 -28 -43 -52 -46 -55 -28 -25 -209 -273 -309 -425
-174 -263 -377 -659 -482 -940 -75 -201 -166 -509 -193 -655 -3 -14 -9 -47
-15 -75 -5 -27 -12 -66 -15 -85 -3 -19 -7 -46 -10 -60 -3 -14 -7 -41 -9 -60
-2 -19 -7 -55 -11 -80 -18 -133 -29 -336 -29 -535 1 -194 9 -339 29 -510 2
-22 7 -62 10 -90 3 -27 10 -72 15 -100 9 -47 15 -89 26 -160 3 -16 7 -41 10
-55 3 -14 8 -34 10 -45 2 -11 11 -51 20 -90 8 -38 19 -88 24 -110 5 -22 18
-75 29 -118 12 -42 30 -112 42 -154 65 -243 278 -829 391 -1073 11 -25 36 -81
55 -125 19 -44 47 -107 63 -140 15 -33 51 -109 80 -170 28 -60 116 -238 194
-395 188 -375 311 -612 503 -970 215 -399 728 -1251 964 -1602 22 -32 39 -61
39 -64 0 -3 13 -23 28 -43 15 -20 57 -81 92 -136 35 -55 67 -101 72 -103 4 -2
8 -7 8 -12 0 -11 539 -809 885 -1310 28 -41 83 -120 120 -175 38 -55 106 -153
152 -218 46 -65 83 -120 83 -122 0 -2 21 -33 48 -69 26 -35 70 -97 97 -137 73
-106 271 -386 314 -444 42 -56 180 -239 197 -261 6 -8 16 -14 22 -14 15 0 105
102 186 210 39 52 74 97 79 98 4 2 7 10 7 17 0 7 4 15 8 17 7 3 93 123 244
343 65 95 379 563 393 587 5 9 46 67 90 129 44 62 110 156 147 209 97 136 517
763 563 839 l39 63 76 -6 c41 -4 89 -8 105 -10 132 -19 508 -25 685 -11 58 4
116 9 130 10 127 9 395 59 534 100 155 45 324 107 406 150 14 7 53 27 87 44
190 94 400 248 574 421 130 130 206 223 305 376 114 177 227 447 269 644 2 8
8 35 14 60 5 25 12 60 15 78 4 17 8 45 11 60 52 305 34 733 -43 992 -8 30 -17
60 -18 66 -6 35 -53 153 -99 251 -96 202 -209 360 -384 533 -116 114 -110 109
-286 253 -46 38 -224 165 -330 236 -225 151 -438 276 -915 538 -25 14 -63 35
-85 48 -22 12 -65 36 -95 52 -30 17 -77 43 -105 58 -87 48 -148 82 -200 110
-257 141 -379 238 -475 382 -59 88 -90 180 -97 281 -16 261 118 448 402 564
26 10 138 35 195 44 76 10 271 12 345 2 210 -27 517 -113 725 -203 151 -65
541 -278 688 -376 24 -16 45 -29 48 -29 4 0 57 -33 218 -137 37 -25 72 -41 76
-36 25 27 67 283 77 463 13 225 7 623 -12 795 -3 22 -7 67 -10 100 -81 862
-407 1693 -936 2385 -214 281 -485 567 -709 750 -30 25 -57 47 -60 51 -3 3
-52 41 -110 86 -554 423 -1222 724 -1930 867 -69 14 -147 28 -175 32 -27 3
-58 8 -69 10 -10 2 -44 6 -75 9 -31 3 -69 8 -86 10 -106 14 -606 29 -618 19z
m358 -1709 c156 -9 254 -24 415 -61 105 -25 258 -68 295 -83 11 -5 63 -26 115
-46 97 -39 277 -125 340 -163 19 -12 44 -26 55 -31 41 -18 273 -179 365 -252
349 -278 537 -510 740 -909 24 -47 52 -97 62 -112 10 -14 18 -28 18 -30 0 -1
-46 -4 -103 -6 -171 -4 -299 -15 -432 -38 -16 -3 -41 -7 -55 -9 -67 -9 -232
-50 -332 -82 -358 -113 -652 -289 -907 -542 -124 -123 -156 -162 -246 -296
-139 -207 -245 -481 -271 -695 -3 -30 -8 -58 -10 -62 -6 -9 -18 -200 -18 -278
0 -74 12 -252 18 -290 3 -14 7 -43 10 -65 34 -237 157 -555 297 -770 240 -366
591 -671 1119 -970 85 -48 205 -116 265 -150 61 -35 133 -75 160 -90 28 -16
67 -39 87 -52 21 -12 39 -23 42 -23 3 0 99 -55 156 -90 8 -5 40 -23 70 -41 70
-40 384 -249 429 -286 79 -64 210 -184 252 -231 70 -77 143 -190 174 -267 52
-128 41 -307 -28 -441 -113 -221 -389 -384 -720 -424 -82 -10 -341 -14 -412
-6 -122 13 -153 17 -175 21 -14 3 -41 7 -60 10 -183 29 -466 115 -682 205
-212 89 -635 309 -819 426 -26 16 -77 63 -114 104 -84 93 -167 182 -259 281
-81 87 -94 101 -236 264 -58 66 -107 122 -110 125 -3 3 -34 39 -70 80 -36 41
-67 77 -70 80 -3 3 -34 39 -70 80 -36 41 -67 77 -70 80 -3 3 -53 59 -110 125
-58 66 -109 125 -115 131 -30 33 -130 147 -265 304 -100 116 -114 127 -285
242 -99 67 -182 124 -185 127 -3 4 -18 15 -35 25 -44 28 -168 121 -255 191
-41 33 -84 67 -94 75 -40 32 -265 258 -308 310 -49 60 -178 237 -178 244 0 3
-11 21 -24 41 -14 20 -49 84 -79 143 -152 298 -268 705 -304 1067 -10 104 -10
470 0 560 58 511 233 960 532 1369 45 63 98 131 116 152 127 143 244 262 319
323 24 20 51 43 60 51 35 35 218 167 313 226 273 172 641 322 927 379 16 3
178 30 240 40 19 3 91 8 160 11 69 4 126 7 127 8 3 2 122 -2 228 -9z"/>
<path d="M8717 13804 c-1 -1 -51 -4 -112 -8 -522 -31 -1058 -240 -1465 -570
-88 -72 -236 -218 -300 -296 -25 -30 -48 -57 -51 -60 -4 -3 -46 -63 -93 -133
-101 -150 -208 -364 -264 -527 -43 -125 -97 -348 -108 -445 -3 -33 -8 -69 -10
-80 -23 -108 -21 -548 1 -650 3 -11 7 -31 9 -45 13 -76 38 -157 64 -212 l30
-63 2 60 c4 138 9 224 14 285 4 36 9 92 12 125 9 111 45 309 81 455 170 690
553 1190 1194 1558 251 145 537 255 769 298 14 3 32 7 40 9 8 2 38 7 65 10 28
4 57 8 65 10 31 8 209 18 330 18 358 -1 643 -60 945 -198 33 -15 119 -54 190
-87 72 -33 146 -67 165 -75 19 -9 38 -18 43 -20 26 -15 -5 22 -81 96 -179 175
-368 296 -614 391 -111 43 -270 91 -358 106 -14 3 -36 7 -50 10 -119 22 -252
34 -408 38 -57 1 -104 1 -105 0z"/>
<path d="M6769 2396 c-2 -2 -31 -7 -64 -11 -32 -3 -62 -8 -65 -10 -3 -2 -21
-6 -40 -9 -52 -8 -69 -12 -135 -30 -33 -9 -67 -18 -76 -21 -106 -24 -299 -111
-399 -179 -101 -68 -190 -186 -190 -251 0 -126 170 -259 466 -364 100 -35 390
-112 474 -125 19 -3 49 -8 65 -11 17 -3 67 -13 112 -21 44 -8 96 -16 115 -18
18 -2 69 -9 113 -15 104 -15 126 -18 210 -26 39 -4 78 -9 87 -11 9 -1 57 -6
105 -9 48 -4 104 -9 123 -10 19 -2 80 -7 135 -10 55 -4 123 -8 150 -10 315
-24 1252 -24 1540 0 22 2 87 6 145 9 58 4 123 9 145 11 22 3 72 7 110 10 39 3
88 8 110 10 22 3 63 7 90 10 71 8 125 15 245 31 58 8 123 17 145 20 66 9 376
73 457 93 211 54 412 132 524 202 83 53 157 135 173 191 11 38 10 50 -8 99
-23 60 -100 146 -182 201 -150 102 -478 216 -699 243 -30 4 -71 9 -90 11 l-35
5 40 -26 c22 -14 65 -37 95 -51 120 -55 145 -70 182 -107 22 -20 50 -61 63
-89 l24 -52 -22 -39 c-47 -84 -149 -167 -269 -220 -83 -37 -246 -88 -285 -89
-5 0 -15 -4 -23 -8 -9 -5 -34 -11 -56 -14 -44 -7 -75 -13 -117 -22 -16 -3 -38
-7 -50 -9 -39 -5 -110 -16 -167 -25 -30 -5 -71 -12 -90 -14 -19 -2 -89 -11
-155 -20 -142 -18 -201 -24 -315 -32 -47 -3 -101 -8 -120 -9 -230 -24 -1058
-23 -1330 1 -130 11 -173 15 -305 29 -109 12 -169 20 -320 46 -189 32 -211 36
-275 50 -25 6 -56 13 -70 15 -14 3 -48 12 -76 20 -28 8 -60 16 -70 19 -54 11
-219 71 -289 105 -214 103 -256 221 -123 346 57 54 91 77 211 140 56 30 93 54
81 54 -11 0 -23 -2 -25 -4z"/>
</g>
</svg>
